<svg width="44" height="40" viewBox="0 0 44 40" fill="none" xmlns="http://www.w3.org/2000/svg">
<path d="M43.4775 13.06C44.0629 12.4738 44.0623 11.5241 43.4761 10.9387L33.9237 1.39919C33.3375 0.813802 32.3878 0.814443 31.8024 1.40063C31.217 1.98681 31.2176 2.93655 31.8038 3.52194L40.2948 12.0015L31.8153 20.4925C31.2299 21.0787 31.2305 22.0284 31.8167 22.6138C32.4029 23.1992 33.3526 23.1986 33.938 22.6124L43.4775 13.06ZM2.00101 13.5273L42.4172 13.5001L42.4151 10.5001L1.99899 10.5273L2.00101 13.5273Z" fill="#BAA1A1"/>
<path d="M0.950182 27.8859C0.364793 28.4721 0.365436 29.4218 0.951619 30.0072L10.504 39.5467C11.0902 40.1321 12.04 40.1314 12.6253 39.5453C13.2107 38.9591 13.2101 38.0093 12.6239 37.4239L4.13288 28.9444L12.6124 20.4534C13.1978 19.8672 13.1972 18.9174 12.611 18.3321C12.0248 17.7467 11.075 17.7473 10.4897 18.3335L0.950182 27.8859ZM42.4267 27.4185L2.01054 27.4458L2.01258 30.4458L42.4288 30.4185L42.4267 27.4185Z" fill="#BAA1A1"/>
</svg>
